<?xml version="1.0"?>
<svg xmlns="http://www.w3.org/2000/svg" xmlns:xlink="http://www.w3.org/1999/xlink" xmlns:svgjs="http://svgjs.com/svgjs" version="1.1" width="40" height="40" x="0" y="0" viewBox="0 0 64 64" style="enable-background:new 0 0 512 512" xml:space="preserve"><g><g xmlns="http://www.w3.org/2000/svg" id="Outline"><path d="M42,30A12,12,0,1,0,30,18,12.013,12.013,0,0,0,42,30ZM52,18a9.992,9.992,0,0,1-16.324,7.738l3.592-3.592a5.069,5.069,0,0,0,.505.307l-.3,1.127a.985.985,0,0,0-1,.721,1,1,0,0,0,.707,1.225l1.5.4a1,1,0,0,0,1.224-.707.986.986,0,0,0-.5-1.124l.3-1.128c.1.006.194.03.3.03a4.965,4.965,0,0,0,2.752-.833l.814.814a.99.99,0,0,0,1.54,1.226l1.1-1.1a1,1,0,0,0,0-1.414.987.987,0,0,0-1.226-.126l-.814-.814A4.966,4.966,0,0,0,47,18c0-.1-.024-.2-.03-.3l1.121-.3a.991.991,0,0,0,.871.537.974.974,0,0,0,.26-.035,1,1,0,0,0,.707-1.224l-.4-1.5a1,1,0,0,0-1.224-.707.984.984,0,0,0-.721,1l-1.129.3a5.045,5.045,0,0,0-.306-.5l3.592-3.592A9.949,9.949,0,0,1,52,18ZM39.3,19.285A2.964,2.964,0,0,1,39,18a3,3,0,0,1,3-3,2.964,2.964,0,0,1,1.285.3Zm5.4-2.57A2.965,2.965,0,0,1,45,18a3,3,0,0,1-3,3,2.965,2.965,0,0,1-1.285-.3ZM42,8a9.948,9.948,0,0,1,6.324,2.262l-3.592,3.592a4.887,4.887,0,0,0-.505-.307l.3-1.112c.013,0,.026,0,.039,0a1,1,0,0,0,.258-1.966l-1.5-.4a1,1,0,0,0-1.224.707.985.985,0,0,0,.5,1.124l-.3,1.128c-.1-.006-.194-.03-.3-.03a4.97,4.97,0,0,0-2.752.832l-.815-.814a.985.985,0,0,0-.126-1.225,1,1,0,0,0-1.414,0l-1.1,1.1a.987.987,0,0,0,1.225,1.541l.815.813A4.969,4.969,0,0,0,37,18c0,.1.024.2.03.3l-1.128.3a.983.983,0,0,0-1.124-.5,1,1,0,0,0-.707,1.224l.4,1.5a1,1,0,0,0,.965.741,1.015,1.015,0,0,0,.26-.034.986.986,0,0,0,.721-1l1.129-.3a5.045,5.045,0,0,0,.306.5l-3.592,3.592A9.992,9.992,0,0,1,42,8Z" fill="#ffffff" data-original="#000000" style=""/><path d="M61.5,60.132,56.173,57.09a19.9,19.9,0,0,0,3.472-2.326,1,1,0,1,0-1.291-1.528C45.881,63.793,13.535,56.981,13.23,56.915,5.332,55.051,4,52.624,4,47.889V10.7L21.506,4.248l4.323,8.646-5.247,7-9.376-1.98a1,1,0,0,0-.413,1.957l1.645.347a92.5,92.5,0,0,1,5.924,21.054c-.64.579-1.018.97-1.087,1.043a1,1,0,1,0,1.45,1.377c.083-.087,8.428-8.74,19.287-8.88h.265c6.049,0,11.773,2.656,17.016,7.9a1,1,0,0,0,1.414-1.414,36.812,36.812,0,0,0-2.929-2.632A9.87,9.87,0,0,1,61,36a1,1,0,0,0,0-2,11.669,11.669,0,0,0-8.845,3.431,23.5,23.5,0,0,0-14.169-4.622c-7.857.1-14.327,4.178-17.847,6.962A96.014,96.014,0,0,0,14.8,20.714l5.989,1.264A1,1,0,0,0,21.8,21.6l6-8a1,1,0,0,0,.094-1.046l-5-10a1,1,0,0,0-1.24-.492l-19,7A1,1,0,0,0,2,10V47.889c0,6.3,2.718,9.072,10.789,10.977a121.493,121.493,0,0,0,18.3,2.2q2.052.084,3.984.084c7.758,0,14.08-1.01,18.905-3.016L60.5,61.868A.988.988,0,0,0,61,62a1,1,0,0,0,.5-1.868Z" fill="#ffffff" data-original="#000000" style=""/><path d="M48.673,49.055c-12.278,4.251-19.023.171-19.135.1a1,1,0,0,0-1.079,1.684c.2.13,3.475,2.168,9.556,2.168a34.581,34.581,0,0,0,11.312-2.064,1,1,0,0,0-.654-1.89Z" fill="#ffffff" data-original="#000000" style=""/></g></g></svg>
