<?xml version="1.0"?>
<svg xmlns="http://www.w3.org/2000/svg" xmlns:xlink="http://www.w3.org/1999/xlink" xmlns:svgjs="http://svgjs.com/svgjs" version="1.1" width="40" height="40" x="0" y="0" viewBox="0 0 64 64" style="enable-background:new 0 0 512 512" xml:space="preserve" class=""><g><g xmlns="http://www.w3.org/2000/svg" id="Antihistamines"><path d="m47.21 44.02-11.97-2.56-1.7-8.19a12.073 12.073 0 0 0 2.42-6.27h1.04a3.009 3.009 0 0 0 3-3v-2a3.009 3.009 0 0 0 -3-3h-1v-2.55a8.982 8.982 0 0 0 4-7.45v-6a1 1 0 0 0 -1-1h-22a9.014 9.014 0 0 0 -9 9v2a5.017 5.017 0 0 0 4 4.9v1.1h-1a3.009 3.009 0 0 0 -3 3v2a3.009 3.009 0 0 0 3 3h1.04a12.073 12.073 0 0 0 2.42 6.27l-1.71 8.21-10 2.55a1 1 0 0 0 -.75.97v13a1 1 0 0 0 .86.99l21 3a.66.66 0 0 0 .14.01.97.97 0 0 0 .17-.01l10-1.74.93 1.32a1 1 0 0 0 .82.43h5.08a7.008 7.008 0 0 0 7-7v-10a1 1 0 0 0 -.79-.98zm-35.21-19.02h-1a1 1 0 0 1 -1-1v-2a1 1 0 0 1 1-1h1zm25-4a1 1 0 0 1 1 1v2a1 1 0 0 1 -1 1h-1v-4zm-25-6v.82a3.01 3.01 0 0 1 -2-2.82v-2a7.008 7.008 0 0 1 7-7h21v5a6.978 6.978 0 0 1 -2.38 5.23c-.04-.03-.08-.07-.12-.1l-7-4a1.055 1.055 0 0 0 -.76-.1l-15 4a1 1 0 0 0 -.74.97zm2 11v-10.23l13.86-3.7 6.14 3.51v10.42a10.028 10.028 0 0 1 -1.2 4.75 9.6 9.6 0 0 0 -8.8-5.75 9.653 9.653 0 0 0 -8.79 5.75 9.922 9.922 0 0 1 -1.21-4.75zm2.55 7.05a7.606 7.606 0 0 1 12.25-4.34 7.5 7.5 0 0 1 2.65 4.34l1.74 8.36-2.8-4a5 5 0 0 0 -6.96-1.23 4.991 4.991 0 0 0 -1.23 6.96l3.46 4.95a2.017 2.017 0 0 1 -1.65.91c-.95 0-1.43-.58-2.2-1.6-.8-1.07-1.8-2.4-3.81-2.4s-3 1.33-3.8 2.4a8.152 8.152 0 0 1 -.85 1.02zm7.43 26.94-19.98-2.86v-11.35l8.3-2.12-1.28 6.14a.993.993 0 0 0 .2.83 1.022 1.022 0 0 0 .78.37c2 0 3-1.33 3.8-2.4.77-1.02 1.25-1.6 2.2-1.6s1.44.58 2.21 1.6c.8 1.07 1.8 2.4 3.8 2.4a3.829 3.829 0 0 0 2.83-1.23l6.06 8.67zm22.02-4.99a5 5 0 0 1 -5 5h-4.56l-12.6-18a3 3 0 1 1 4.91-3.44l10.51 15.01a1.01 1.01 0 0 0 .82.43h5.92zm0-3h-5.4l-4.5-6.44-.41-1.96 10.31 2.21z" fill="#ffffff" data-original="#000000" style="" class=""/><path d="m27.445 20.832 3 2 1.11-1.664-1.755-1.168 1.752-1.168-1.11-1.664-3 2a1 1 0 0 0 0 1.664z" fill="#ffffff" data-original="#000000" style="" class=""/><path d="m17.555 22.832 3-2a1 1 0 0 0 0-1.664l-3-2-1.11 1.664 1.755 1.168-1.752 1.168z" fill="#ffffff" data-original="#000000" style="" class=""/><path d="m23 16h2v4h-2z" fill="#ffffff" data-original="#000000" style="" class=""/><path d="m59.96 18.62-2.59-1.5 1-1.73 1.73 1 1-1.74-5.2-3-1 1.74 1.73 1-1 1.73-2.59-1.5a.969.969 0 0 0 -.76-.1.983.983 0 0 0 -.61.46l-8 13.86a1 1 0 0 0 .37 1.37l.86.5-1.5 2.59a1.01 1.01 0 0 0 .37 1.37l.86.5-2.5 4.33 1.74 1 2.5-4.33.86.5a1.013 1.013 0 0 0 1.37-.37l1.5-2.59.86.5a1.128 1.128 0 0 0 .5.13 1.09 1.09 0 0 0 .26-.03 1 1 0 0 0 .61-.47l8-13.86a.988.988 0 0 0 -.37-1.36zm-12.59 15.82-1.74-1 1-1.73 1.74 1zm9.73-12.86-2.6-1.5-1 1.73 2.6 1.5-1 1.74-2.6-1.5-1 1.73 2.6 1.5-1 1.73-2.6-1.5-1 1.73 2.6 1.5-1 1.73-5.2-3 7-12.12 5.2 3z" fill="#ffffff" data-original="#000000" style="" class=""/><path d="m49.707 38.293-1.414 1.414 4 4a1 1 0 0 0 .707.293h9v-2h-8.586z" fill="#ffffff" data-original="#000000" style="" class=""/><path d="m52 46h2v2h-2z" fill="#ffffff" data-original="#000000" style="" class=""/><path d="m56 46h6v2h-6z" fill="#ffffff" data-original="#000000" style="" class=""/><path d="m52 50h10v2h-10z" fill="#ffffff" data-original="#000000" style="" class=""/><path d="m56 38h6v2h-6z" fill="#ffffff" data-original="#000000" style="" class=""/></g></g></svg>
